<?xml version="1.0" encoding="UTF-8"?>
<!DOCTYPE svg PUBLIC "-//W3C//DTD SVG 1.1//EN" "http://www.w3.org/Graphics/SVG/1.1/DTD/svg11.dtd">
<svg xmlns="http://www.w3.org/2000/svg" xml:space="preserve" width="27.7282mm" height="6.4092mm" version="1.1" style="shape-rendering:geometricPrecision; text-rendering:geometricPrecision; image-rendering:optimizeQuality; fill-rule:evenodd; clip-rule:evenodd"
viewBox="0 0 37138 8584.2"
 xmlns:xlink="http://www.w3.org/1999/xlink"
 xmlns:xodm="http://www.corel.com/coreldraw/odm/2003">
 <g>
  <path style="fill: #222" d="M1258.7 4297.9c0,-1088.6 430.9,-2109.2 1428.8,-2109.2l68 0c827.9,0 1179.3,623.6 1564.9,941.2l601 -56.7c124.8,-90.8 158.8,-204.1 158.8,-385.6 -170.1,-986.6 -963.9,-1519.6 -2086.6,-1519.6 -963.9,0 -1349.4,646.5 -2029.8,998 -646.4,589.7 -963.9,1587.7 -963.9,2596.9 0,1610.3 827.9,3254.5 2506.1,3265.9l102.1 0c782.5,0 1190.7,-487.7 1667,-850.5 -90.7,-11.4 -204.1,-22.6 -226.8,-102.1 -272.2,68 -623.7,170.1 -952.6,170.1 -1417.4,-102.1 -1837.1,-1428.8 -1837.1,-2948.3zm5976.1 351.4c90.8,0 181.5,11.4 272.2,22.8 -260.8,510.3 -1372,1791.7 -1837.1,1791.7 -124.7,0 -204.1,-90.7 -204.1,-317.6l0 -226.8c22.8,-929.9 816.5,-1270.1 1769,-1270.1zm-2778.2 1292.7c0,623.7 272.2,1202.1 907.1,1202.1 1043.4,-34 1621.7,-703 2188.6,-1292.7 -11.4,124.7 -11.4,238.1 -11.4,362.8 79.4,612.4 -79.3,1462.8 567.1,1519.6l136.1 -56.8c56.7,-56.7 113.3,-113.3 158.7,-181.3 362.8,-850.5 374.2,-2075.2 419.6,-3186.6 -34,-170.1 -68,-555.6 -328.9,-555.6 -181.3,22.6 -328.8,56.7 -430.9,90.7 -215.5,-90.7 -498.9,-124.7 -759.8,-124.7 -1065.9,11.3 -1735,498.9 -2358.6,963.8 -317.6,249.5 -487.7,771.2 -487.7,1258.7zm7972 1893.9c0,-306.2 -476.3,-759.8 -567.1,-1077.2 -317.4,-1054.6 -396.9,-2347.4 -442.3,-3526.8 691.8,-22.6 2075.2,-408.2 2075.2,-816.5 0,-113.3 -328.8,-204.1 -816.5,-204.1l-90.7 0c-340.2,0 -782.5,22.8 -1202.1,68l0 -464.9c0,-442.3 34,-759.8 34,-1032 0,-328.8 -45.3,-601 -249.4,-601 -238.1,0 -703.2,374.2 -793.8,419.5 -170.1,385.6 -192.7,1100 -215.5,1803.2 -272.2,34 -555.6,56.7 -782.5,136.1 -158.7,226.8 -396.9,442.3 -396.9,601 0,113.4 147.5,192.7 623.7,192.7l555.6 0c11.4,827.9 45.4,1564.9 192.9,2302.1 226.8,1133.9 351.4,2370 1598.9,2494.7 328.8,0 476.3,-124.7 476.3,-294.8zm5102.8 -4796.8c0,1689.6 -1201.9,2063.8 -1939.1,2109.2 90.8,-1145.4 181.5,-2381.4 181.5,-3594.8 0,-215.4 0,-430.9 -11.4,-623.7 56.8,-11.3 113.4,-11.3 181.5,-11.3 1122.7,68 1587.5,941.2 1587.5,2120.6zm-997.8 -3039.1c-725.8,0 -1281.5,476.3 -1814.4,861.7 -45.4,45.4 -102.1,147.5 -113.4,215.5l34 0c-340.2,1281.5 -362.8,2812.4 -578.3,4184.4 11.4,68 22.8,136.1 22.8,204.1 -34,476.3 -79.4,941.3 -79.4,1428.8l0 192.9c45.4,351.4 -79.4,986.6 283.5,1054.6l317.4 -102.1 0 -11.4 465 -124.7c408.2,-283.5 328.8,-1043.4 430.9,-1598.9 1077.2,-34 1304.1,-476.3 2097.8,-929.9 465,-317.6 873.3,-839.1 1077.4,-1360.8 136.1,-374.2 249.4,-714.4 249.4,-1236.1 -90.7,-1553.5 -827.7,-2778.2 -2392.6,-2778.2zm4762.6 4649.3c90.8,0 181.5,11.4 272.2,22.8 -260.8,510.3 -1372,1791.7 -1837.1,1791.7 -124.7,0 -204.1,-90.7 -204.1,-317.6l0 -226.8c22.8,-929.9 816.5,-1270.1 1769,-1270.1zm-2778.2 1292.7c0,623.7 272.2,1202.1 907.1,1202.1 1043.4,-34 1621.7,-703 2188.6,-1292.7 -11.4,124.7 -11.4,238.1 -11.4,362.8 79.4,612.4 -79.3,1462.8 567.1,1519.6l136.1 -56.8c56.7,-56.7 113.3,-113.3 158.7,-181.3 362.8,-850.5 374.2,-2075.2 419.6,-3186.6 -34,-170.1 -68,-555.6 -328.9,-555.6 -181.3,22.6 -328.8,56.7 -430.9,90.7 -215.5,-90.7 -498.9,-124.7 -759.8,-124.7 -1065.9,11.3 -1735,498.9 -2358.6,963.8 -317.6,249.5 -487.7,771.2 -487.7,1258.7zm5454.4 -2188.6c0,260.9 170.1,544.3 294.8,725.8 714.4,884.5 1837.1,1383.4 2494.8,2313.3 -147.5,22.6 -306.2,34 -465,34l-136.1 0c-873.1,0 -1644.2,-396.9 -2438,-532.9l-226.8 0 -136.1 68c-56.8,124.7 -147.5,215.4 -147.5,385.5 0,328.9 362.8,533.1 612.4,680.4 498.9,272.2 1281.4,442.3 1984.5,442.3l68 0c124.7,0 589.6,-11.3 725.7,-68 351.6,-158.7 1247.5,-396.9 1247.5,-1043.2 0,-453.6 -238.1,-737 -465,-986.6 -510.3,-567 -1145.3,-1009.2 -1712.2,-1508.3 -192.9,-192.7 -453.6,-328.8 -521.7,-635 215.5,-317.6 805.1,-328.8 1213.3,-374.2l215.5 0 170.1 -34 34 0 623.7 -215.5c22.6,-45.3 34,-102.1 34,-147.3 0,-397 -499,-567.1 -895.9,-567.1l-102.1 0c-1190.7,102.1 -1270.1,226.9 -2233.9,873.3 -147.5,102.1 -238.1,385.5 -238.1,589.6zm7382.4 4536c0,-306.2 -476.3,-759.8 -567.1,-1077.2 -317.4,-1054.6 -396.9,-2347.4 -442.3,-3526.8 691.8,-22.6 2075.2,-408.2 2075.2,-816.5 0,-113.3 -328.8,-204.1 -816.5,-204.1l-90.7 0c-340.2,0 -782.5,22.8 -1202.1,68l0 -464.9c0,-442.3 34,-759.8 34,-1032 0,-328.8 -45.3,-601 -249.4,-601 -238.1,0 -703.2,374.2 -793.8,419.5 -170.1,385.6 -192.7,1100 -215.5,1803.2 -272.2,34 -555.6,56.7 -782.5,136.1 -158.7,226.8 -396.9,442.3 -396.9,601 0,113.4 147.5,192.7 623.7,192.7l555.6 0c11.4,827.9 45.4,1564.9 192.9,2302.1 226.8,1133.9 351.4,2370 1598.9,2494.7 328.8,0 476.3,-124.7 476.3,-294.8zm4059.6 -4365.8l170.1 -102.1c0,0 -68,45.4 -170.1,102.1zm-351.6 181.5c-498.9,238.1 -1032,442.3 -1576.3,589.6 158.8,-464.9 476.3,-839.1 884.5,-1111.3 283.5,-102.1 578.3,-158.7 873.3,-158.7 68,11.3 442.3,11.3 453.5,136.1 -90.7,272.2 -396.9,430.9 -635,544.3zm-226.8 2812.3c-918.5,0 -1474.2,-657.8 -1474.2,-1508.3 1066,-204.1 1961.8,-691.6 2767,-1201.9 226.8,-181.5 476.3,-374.2 487.5,-748.4 0,-623.7 -680.4,-861.9 -1315.4,-861.9 -884.5,0 -1372.2,442.3 -1961.8,759.8 -623.7,521.5 -1066,1156.7 -1066,2222.5 0,1326.8 861.9,2188.6 2222.7,2188.6 963.8,-34 2381.4,-487.7 2642.2,-1236.1 0,-45.3 -34,-102.1 -56.7,-147.3l-136.1 0c-725.8,0 -499,532.9 -2018.5,532.9l-90.7 0z"/>
 </g>
</svg>
