<?xml version="1.0" encoding="UTF-8"?>
<!DOCTYPE svg PUBLIC "-//W3C//DTD SVG 1.1//EN" "http://www.w3.org/Graphics/SVG/1.1/DTD/svg11.dtd">
<svg xmlns="http://www.w3.org/2000/svg" xml:space="preserve" width="278.342mm" height="227.678mm" version="1.1" style="shape-rendering:geometricPrecision; text-rendering:geometricPrecision; image-rendering:optimizeQuality; fill-rule:evenodd; clip-rule:evenodd"
viewBox="0 0 710716 581351.9"
 xmlns:xlink="http://www.w3.org/1999/xlink"
 xmlns:xodm="http://www.corel.com/coreldraw/odm/2003">
 <defs>
  <style type="text/css">
   <![CDATA[
    .str0 {stroke:white;stroke-width:3958.5;stroke-miterlimit:10;stroke-dasharray:19792.626111 11875.575667}
    .fil2 {fill:none;fill-rule:nonzero}
    .fil4 {fill:black}
    .fil0 {fill:black;fill-rule:nonzero}
    .fil3 {fill:black;fill-rule:nonzero}
    .fil1 {fill:url(#id0)}
   ]]>
  </style>
  <linearGradient id="id0" gradientUnits="userSpaceOnUse" x1="321088.9" y1="360625.2" x2="369995.8" y2="58957.8">
   <stop offset="0" style="stop-opacity:1; stop-color:#2D5A63"/>
   <stop offset="1" style="stop-opacity:1; stop-color:#3DA3B8"/>
  </linearGradient>
 </defs>
 <g id="Слой_x0020_1">
  <path class="fil0" d="M24088.5 499323.4c0,-20833.1 8245.7,-40364.5 27343.8,-40364.5l1302.2 0c15842.8,0 22568.4,11934 29947.7,18011.4l11501 -1084.2c2388.7,-1737.8 3039.8,-3906.2 3039.8,-7379.3 -3255.3,-18880.3 -18447,-29081.6 -39931.2,-29081.6 -18447.2,0 -25824,12372.5 -38844.8,19098.1 -12369.7,11285.5 -18447,30383.6 -18447,49696.9 0,30816.9 15842.8,62282.1 47959.1,62499.9l1953.1 0c14974.1,0 22786.5,-9332.4 31901.1,-16276.1 -1735.3,-217.8 -3906.2,-433.1 -4339.5,-1953.1 -5208.2,1302.2 -11936.6,3255.3 -18228.9,3255.3 -27126,-1953.1 -35156.4,-27343.8 -35156.4,-56422.8zm114365.5 6725.9c1737.8,0 3473.1,217.8 5208.2,435.6 -4990.4,9765.7 -26256.8,34287.2 -35156.1,34287.2 -2386.1,0 -3906.2,-1735 -3906.2,-6077.1l0 -4339.5c435.6,-17795.9 15625,-24306.3 33854.2,-24306.3zm-53167.5 24739.6c0,11936.6 5208.4,23004.3 17360.3,23004.3 19967,-651.1 31034.7,-13454.1 41884.3,-24739.6 -217.8,2386.1 -217.8,4557.3 -217.8,6943.4 1520,11718.8 -1517.5,27994.9 10852.4,29081.6l2604.2 -1086.7c1084.2,-1084.4 2168.3,-2168.6 3037.3,-3470.6 6943.7,-16276.1 7161.5,-39713.4 8030.4,-60982.4 -651.1,-3255.3 -1302.2,-10632.1 -6295.1,-10632.1 -3470.6,433.1 -6292.6,1084.2 -8245.7,1735.3 -4124.2,-1735.3 -9547.6,-2386.4 -14540.8,-2386.4 -20397.5,215.5 -33203,9547.9 -45137.1,18444.4 -6077.1,4775.4 -9332.4,14758.6 -9332.4,24088.7zm152561.4 36242.9c0,-5859.3 -9114.6,-14540.8 -10852.4,-20615.3 -6074.8,-20182.3 -7594.6,-44921.8 -8463.5,-67493.1 13238.6,-433.1 39713.4,-7812.4 39713.4,-15625 0,-2168.3 -6292.6,-3906.2 -15625,-3906.2l-1735.3 0c-6510.4,0 -14973.9,435.6 -23004.3,1302l0 -8896.5c0,-8463.7 651.1,-14540.8 651.1,-19749.2 0,-6292.6 -866.4,-11500.7 -4772.5,-11500.7 -4557.3,0 -13456.6,7161.2 -15191.9,8027.6 -3255.1,7379.3 -3688.4,21051.2 -4124,34507.8 -5208.4,651.1 -10632.1,1084.2 -14974.1,2604.2 -3037.3,4339.2 -7594.6,8463.5 -7594.6,11500.7 0,2171.2 2822,3688.4 11936.6,3688.4l10632.1 0c217.8,15843 868.9,29948 3690.9,44055.5 4339.2,21699.8 6725.6,45354.9 30598.8,47741.3 6292.6,0 9114.6,-2386.4 9114.6,-5641.5zm97653.5 -91796.8c0,32334.1 -23001.7,39495.6 -37109.2,40364.5 1737.8,-21920.1 3472.9,-45573 3472.9,-68795 0,-4121.4 0,-8245.7 -217.8,-11936.6 1086.7,-215.3 2171.2,-215.3 3473.1,-215.3 21484.2,1302 30381,18011.4 30381,40582.4zm-19095.5 -58160.4c-13889.7,0 -24524.1,9114.6 -34723.1,16491.3 -868.7,868.9 -1953.1,2822 -2170.9,4124l651.1 0c-6510.4,24524.3 -6943.7,53821.2 -11067.7,80078 217.8,1302.2 435.6,2604.2 435.6,3906.4 -650.9,9114.6 -1519.8,18013.7 -1519.8,27343.5l0 3690.9c868.9,6725.9 -1520,18880.3 5426.2,20182.3l6074.5 -1953.1 0 -217.8 8899.3 -2386.4c7812.4,-5426.2 6292.6,-19966.8 8245.7,-30598.8 20615.3,-651.1 24957.4,-9114.6 40146.5,-17795.9 8899.3,-6077.3 16712,-16058.3 20618.1,-26041.8 2604.2,-7161.2 4772.5,-13671.6 4772.5,-23655.1 -1735.3,-29730.2 -15840.2,-53167.5 -45788.2,-53167.5zm91143.1 88974.8c1737.8,0 3473.1,217.8 5208.4,435.6 -4990.4,9765.7 -26257.1,34287.2 -35156.1,34287.2 -2386.4,0 -3906.4,-1735 -3906.4,-6077.1l0 -4339.5c435.9,-17795.9 15625,-24306.3 33854.2,-24306.3zm-53167.5 24739.6c0,11936.6 5208.4,23004.3 17360.3,23004.3 19967,-651.1 31034.7,-13454.1 41884.6,-24739.6 -217.8,2386.1 -217.8,4557.3 -217.8,6943.4 1519.8,11718.8 -1517.5,27994.9 10852.2,29081.6l2604.2 -1086.7c1084.2,-1084.4 2168.6,-2168.6 3037.5,-3470.6 6943.4,-16276.1 7161.2,-39713.4 8030.2,-60982.4 -650.9,-3255.3 -1302,-10632.1 -6295.1,-10632.1 -3470.3,433.1 -6292.3,1084.2 -8245.4,1735.3 -4124.2,-1735.3 -9547.9,-2386.4 -14540.8,-2386.4 -20397.5,215.5 -33203,9547.9 -45137.1,18444.4 -6077.3,4775.4 -9332.7,14758.6 -9332.7,24088.7zm104381.9 -41884.6c0,4992.9 3255.1,10416.6 5641.5,13889.7 13671.9,16927 35156.1,26474.9 47743.9,44270.7 -2822,433.3 -5859.3,651.1 -8899.3,651.1l-2604.2 0c-16709.1,0 -31465.2,-7594.6 -46656.9,-10198.8l-4339.5 0 -2604.2 1302c-1086.7,2386.4 -2822,4121.7 -2822,7376.8 0,6295.1 6943.7,10201.3 11718.8,13020.8 9547.6,5208.4 24521.5,8463.7 37978.1,8463.7l1302.2 0c2386.1,0 11282.9,-215.5 13887.1,-1302.2 6728.2,-3037.3 23873.2,-7594.6 23873.2,-19964.2 0,-8681.5 -4557.3,-14105.2 -8899.3,-18880.3 -9765.7,-10849.9 -21917.6,-19313.4 -32767.4,-28863.6 -3690.9,-3688.4 -8681.3,-6292.6 -9983.5,-12152.1 4124.2,-6077.1 15407.2,-6292.3 23219.8,-7161.2l4124 0 3255.3 -651.1 650.9 0 11936.6 -4124.2c433.3,-866.4 651.1,-1953.1 651.1,-2819.5 0,-7597.1 -9550.2,-10852.2 -17145,-10852.2l-1953.1 0c-22786.2,1953.1 -24306.3,4341.8 -42750.7,16711.7 -2822,1953.1 -4557.3,7376.8 -4557.3,11282.9zm141278.5 86806.2c0,-5859.3 -9114.6,-14540.6 -10852.4,-20615.3 -6074.8,-20182.3 -7594.8,-44921.8 -8463.5,-67492.8 13238.6,-433.3 39713.4,-7812.6 39713.4,-15625 0,-2168.6 -6292.6,-3906.4 -15625,-3906.4l-1735.3 0c-6510.4,0 -14973.9,435.9 -23004.3,1302.2l0 -8896.8c0,-8463.5 651.1,-14540.8 651.1,-19749 0,-6292.6 -866.4,-11501 -4772.8,-11501 -4557.3,0 -13456.4,7161.5 -15191.7,8027.9 -3255.3,7379.3 -3688.4,21051.2 -4124.2,34507.6 -5208.2,651.1 -10631.8,1084.4 -14973.9,2604.2 -3037.3,4339.5 -7594.6,8463.5 -7594.6,11501 0,2170.9 2822,3688.4 11936.6,3688.4l10631.8 0c218.1,15842.8 868.9,29947.7 3690.9,44055.5 4339.5,21699.5 6725.9,45354.9 30599.1,47741 6292.3,0 9114.6,-2386.1 9114.6,-5641.5zm77689 -83548.3l3255.3 -1953.3c0,0 -1302.2,868.9 -3255.3,1953.3zm-6728.2 3472.9c-9547.9,4557.3 -19749.2,8463.7 -30165.8,11283.2 3039.8,-8896.8 9114.6,-16058.3 16927,-21266.7 5426.2,-1953.1 11067.7,-3037.3 16711.7,-3037.3 1302.2,215.3 8463.7,215.3 8679,2604.2 -1735.3,5208.4 -7594.6,8245.7 -12151.9,10416.6zm-4339.5 53818.6c-17578.1,0 -28212.7,-12587.7 -28212.7,-28863.8 20400.1,-3906.2 37542.5,-13236 52952.3,-23001.7 4339.5,-3472.9 9114.6,-7161.2 9329.8,-14322.7 0,-11936.6 -13020.8,-16493.9 -25172.6,-16493.9 -16927.2,0 -26259.6,8463.5 -37542.5,14540.8 -11936.6,9981 -20400.1,22135.4 -20400.1,42532.9 0,25390.7 16493.9,41884.6 42535.4,41884.6 18444.4,-651.1 45572.7,-9332.7 50563.3,-23655.4 0,-866.4 -651.1,-1953.1 -1084.2,-2819.5l-2604.2 0c-13889.7,0 -9550.5,10198.8 -38629.3,10198.8l-1735.3 0z"/>
  <polygon class="fil1" points="205988.6,338795.9 427928,381051.5 485095.9,80787.1 263156.8,38531.5 "/>
  <g>
   <path class="fil2 str0" d="M384936.5 376088c5046.8,-32510.1 8676.7,-61825.6 13735.7,-94404 2566.4,-16524.3 5217.6,-33035.5 7932.9,-49537.6 2323.3,-14111.1 8870.7,-21349.9 16872.6,-32819.5 6530,-9356.4 10255.7,-20648.5 10570.5,-32056.3 105.7,-3824 -1090.8,-8444.8 -3672.8,-11311.3 -12556.1,-13927.7 -27564.1,-1697.2 -31520.9,117.7 7769.7,-17226.2 8990,-42916.2 -13212.3,-46878 -7445.2,-1327.3 -17380.9,2124.4 -22419,8018.4 -3749.4,4384.4 -6593.4,9541.8 -8299,15048.9 -3717,-8677.2 -9092.6,-17107 -17271.7,-21823.1 -8179.3,-4716.1 -19617.5,-4693.4 -26232.3,2044.2 -4849.9,4939.8 -6271.6,12466.2 -5351.7,19326.9 923.8,6858.2 3889.3,13252.1 6819.1,19522.5 -9814.5,-2655.3 -19161.2,-7360.9 -28336.8,-1047.1 -6884.7,4737.8 -10920.1,13325.4 -10169.7,21649.2 659.8,7330.8 4653.3,13895.8 8717.3,20034.7 4520.3,6829.6 11764.8,12331.9 15890.3,18846.6 4816,7609.1 2074.1,18813.7 518.8,27025.4 -7668.1,40423.8 -15964.3,76973.6 -26779.5,116670.1"/>
  </g>
  <path class="fil0" d="M350981.2 146044.9c613.6,-7547.6 -3559.2,-16379.8 -8798.7,-21677.5 -5358.8,-5422.6 -13874.9,-6159.3 -18480.9,577.1 -3636.3,5295 -3204.5,12883.1 -2088.9,18893.6 1594.8,8597 7374.7,16319 16943.3,15287.7 4702.3,-500.7 9005.8,-3633.7 11054.7,-7896.4 780.8,-1630.9 1226.7,-3381.5 1370.7,-5184.4z"/>
  <path class="fil0" d="M419063.6 184193.9c2527.3,-4815.7 4685.7,-12069.4 2382.8,-17349.8 -3365.6,-7727.3 -14656.5,-3639.4 -19763.5,36.3 -4479.9,3227.2 -7718.9,8127.5 -8919.3,13518.2 -1527.4,6841.8 3137.9,13758.4 10334.1,13881 6036.7,116.4 12210.8,-3897.8 15311.4,-8931.8 226.2,-355.7 437.4,-740 654.4,-1153.9z"/>
  <path class="fil0" d="M321162.7 188363.8c2342,-3598.8 3077.3,-8536 2295.8,-13051.2 -1689.6,-9602 -13034.6,-17314.6 -22650.6,-12810.4 -4714.1,2201 -7465.6,7495.7 -7394.1,12571.1 53.1,4448.3 1633.4,10220.2 4988.6,13302.9 1866,1720.5 4183,2897.8 6555.6,3809.9 1880.6,731 3842.1,1304 5862.6,1407.4 4784.8,220.9 8231.1,-1955.6 10342.3,-5229.9z"/>
  <path class="fil0" d="M385490.9 201465c-3048.8,-2625.4 -6576.8,-4907.9 -7247.3,-9120.7 -157,-1001.4 -116.9,-2016.4 -166.7,-3017.9 -462.4,-9306.9 -8969.3,-16913.9 -18190.6,-16900.4 -12289,12.3 -13690.8,12236.4 -20176.7,19688.7 -5605.7,6454 -14601.6,8478.8 -13412.7,18885.2 646.8,5706.8 4684.2,10765.4 9877.8,13216.4 5199.2,2447.2 11379.7,2427.3 16791.6,507.6 1044.8,-358.5 2106.5,-805.6 3206.8,-703.5 1632.9,152.2 2885.1,1443.9 4136,2500.3 5934.3,5005.4 15158.5,5621.6 21713.3,1459.8 6857.4,-4354.6 11548,-15671.2 6703.9,-23046.2 -860.2,-1309.1 -2009.3,-2417.6 -3235.4,-3469.3z"/>
  <path class="fil0" d="M395644.4 131565.1c-1064.8,-5095.8 -4488.9,-9561.9 -9959.5,-10772.3 -12083.4,-2679 -19485.7,12621.2 -20731.8,22308.2 -581.9,4506.2 -572.7,9237.7 1298.9,13372.4 1873.4,4125 5944.6,7502.6 10472.5,7434.2 3106.5,-42.6 5998.7,-1644.4 8416.7,-3602.6 8046.3,-6490.5 12645.7,-18509.8 10503.1,-28740z"/>
  <path class="fil3" d="M213759.3 333510.9l208883.6 39769.9 54682.2 -287208.7 -208883.4 -39769.9 -54682.4 287208.7zm212925.7 54068.4l-228467.1 -43498.3 59653.9 -313320.2 234995.1 44741.3 -59653.9 313320.2 -6528 -1243z"/>
  <path class="fil4" d="M385311.1 912.8c19810.8,3771.9 34014,18251.4 33827.1,33493.6l26476.6 5040.9 -9942.9 52223.3 -130548.3 -24855.5 9942.9 -52223.3 26476.6 5040.9c5427.2,-14244.4 23952.4,-22492.6 43768,-18719.9zm-9488.2 49835.3c9049.2,1722.8 17783.4,-4217.4 19506.4,-13266.7 1722.8,-9049.2 -4217.4,-17783.4 -13266.7,-19506.1 -9049.2,-1723 -17783.4,4217.2 -19506.1,13266.4 -1723,9049.2 4217.2,17783.4 13266.4,19506.4z"/>
 </g>
</svg>
